# Blender v2.82 (sub 7) OBJ File: 'charger.blend'
# www.blender.org
mtllib charger.mtl
o Base_Cube
v 0.500000 -0.400000 -0.500000
v 0.500000 -0.500000 -0.500000
v 0.500000 -0.400000 0.500000
v 0.500000 -0.500000 0.500000
v -0.500000 -0.400000 -0.500000
v -0.500000 -0.500000 -0.500000
v -0.500000 -0.400000 0.500000
v -0.500000 -0.500000 0.500000
vt 0.500000 0.500000
vt 0.023878 0.500000
vt 0.023878 0.023879
vt 0.500000 0.023878
vt 0.500000 0.000072
vt 0.023878 0.000073
vt 0.023878 0.999928
vt 0.000072 0.999928
vt 0.000072 0.523806
vt 0.023878 0.523806
vt 0.500000 0.523806
vt 0.500000 0.999927
vt 0.523806 0.523806
vt 0.523806 0.999927
vn 0.0000 1.0000 0.0000
vn 0.0000 0.0000 1.0000
vn -1.0000 0.0000 0.0000
vn 0.0000 -1.0000 0.0000
vn 1.0000 0.0000 0.0000
vn 0.0000 0.0000 -1.0000
usemtl base
s off
f 1/1/1 5/2/1 7/3/1 3/4/1
f 4/5/2 3/4/2 7/3/2 8/6/2
f 8/7/3 7/8/3 5/9/3 6/10/3
f 6/10/4 2/11/4 4/12/4 8/7/4
f 2/11/5 1/13/5 3/14/5 4/12/5
f 6/10/6 5/2/6 1/1/6 2/11/6
o Top_Cube.001
v 0.500000 0.506733 -0.500000
v 0.500000 -0.393267 -0.500000
v 0.500000 0.506733 0.500000
v 0.500000 -0.393267 0.500000
v -0.500000 0.506733 -0.500000
v -0.500000 -0.393267 -0.500000
v -0.500000 0.506733 0.500000
v -0.500000 -0.393267 0.500000
vt 0.500000 0.236887
vt 0.500000 0.500000
vt 0.236887 0.500000
vt 0.236887 0.236887
vt 0.000086 0.236887
vt 0.000086 0.500000
vt 0.999914 0.500000
vt 0.999914 0.736802
vt 0.736801 0.736801
vt 0.736801 0.500000
vt 0.736801 0.236887
vt 0.999914 0.236887
vt 0.736801 0.000086
vt 0.999914 0.000086
vn 0.0000 1.0000 0.0000
vn 0.0000 0.0000 1.0000
vn -1.0000 0.0000 0.0000
vn 0.0000 -1.0000 0.0000
vn 1.0000 0.0000 0.0000
vn 0.0000 0.0000 -1.0000
usemtl top
s off
f 9/15/7 13/16/7 15/17/7 11/18/7
f 12/19/8 11/18/8 15/17/8 16/20/8
f 16/21/9 15/22/9 13/23/9 14/24/9
f 14/24/10 10/25/10 12/26/10 16/21/10
f 10/25/11 9/27/11 11/28/11 12/26/11
f 14/24/12 13/16/12 9/15/12 10/25/12
