# Blender v2.82 (sub 7) OBJ File: 'pressurePlate.blend'
# www.blender.org
mtllib pressurePlate.mtl
o Cube
v 1.000000 0.050000 -1.000000
v 1.000000 -0.050000 -1.000000
v 1.000000 0.050000 1.000000
v 1.000000 -0.050000 1.000000
v -1.000000 0.050000 -1.000000
v -1.000000 -0.050000 -1.000000
v -1.000000 0.050000 1.000000
v -1.000000 -0.050000 1.000000
vt 0.500000 0.500000
vt 0.023878 0.500000
vt 0.023878 0.023879
vt 0.500000 0.023878
vt 0.500000 0.000072
vt 0.023878 0.000073
vt 0.023878 0.999928
vt 0.000072 0.999928
vt 0.000072 0.523806
vt 0.023878 0.523806
vt 0.500000 0.523806
vt 0.500000 0.999927
vt 0.523806 0.523806
vt 0.523806 0.999927
vn 0.0000 1.0000 0.0000
vn 0.0000 0.0000 1.0000
vn -1.0000 0.0000 0.0000
vn 0.0000 -1.0000 0.0000
vn 1.0000 0.0000 0.0000
vn 0.0000 0.0000 -1.0000
usemtl plate
s off
f 1/1/1 5/2/1 7/3/1 3/4/1
f 4/5/2 3/4/2 7/3/2 8/6/2
f 8/7/3 7/8/3 5/9/3 6/10/3
f 6/10/4 2/11/4 4/12/4 8/7/4
f 2/11/5 1/13/5 3/14/5 4/12/5
f 6/10/6 5/2/6 1/1/6 2/11/6
